<svg width="592" height="128" viewBox="0 0 592 128" fill="none" xmlns="http://www.w3.org/2000/svg">
<path d="M68.5 22.5C23.6856 38.2454 0.5 53.0002 0.5 53.0002L9 77.4999L14 85.9999L38.5 110.5L56.5 121.5L76.5 128H502H516.5L542.5 120C542.5 120 563.998 110.003 572 97.9998C586 77.0002 606 64.5002 576 55.0002C544.309 44.9649 496 35.5002 455 51.0002C437.465 57.6293 421.056 55.0002 401 55.0002C372.5 55.0002 367 54.0002 337 42.0002C318.145 34.4583 315.5 33.0004 297 24.0002C274.414 13.0124 216.5 -0.000142048 178.5 0C144.329 0.000127736 105.5 9.50025 68.5 22.5Z" fill="#AF3131"/>
</svg>
