<svg width="23" height="20" viewBox="0 0 23 20" fill="none" xmlns="http://www.w3.org/2000/svg">
<path d="M1.15 0.467072C0.5152 0.467072 0 1.16189 0 2.01801C0 2.87413 0.5152 3.56895 1.15 3.56895H21.85C22.4848 3.56895 23 2.87413 23 2.01801C23 1.16189 22.4848 0.467072 21.85 0.467072H1.15ZM1.15 8.22177C0.5152 8.22177 0 8.91659 0 9.77271C0 10.6288 0.5152 11.3236 1.15 11.3236H21.85C22.4848 11.3236 23 10.6288 23 9.77271C23 8.91659 22.4848 8.22177 21.85 8.22177H1.15ZM1.15 15.9765C0.5152 15.9765 0 16.6713 0 17.5274C0 18.3835 0.5152 19.0783 1.15 19.0783H21.85C22.4848 19.0783 23 18.3835 23 17.5274C23 16.6713 22.4848 15.9765 21.85 15.9765H1.15Z" fill="#AF3131"/>
</svg>
